<?xml version="1.0" standalone="no"?>
<!DOCTYPE svg PUBLIC "-//W3C//DTD SVG 20010904//EN"
 "http://www.w3.org/TR/2001/REC-SVG-20010904/DTD/svg10.dtd">
<svg version="1.0" xmlns="http://www.w3.org/2000/svg"
 width="1280.000000pt" height="640.000000pt" viewBox="0 0 1280.000000 640.000000"
 preserveAspectRatio="xMidYMid meet">
<metadata>
Created by potrace 1.15, written by Peter Selinger 2001-2017
</metadata>
<g transform="translate(0.000000,640.000000) scale(0.100000,-0.100000)"
fill="#000000" stroke="none">
<path d="M5300 6044 c-8 -1 -193 -8 -410 -14 -639 -18 -974 -37 -1286 -75 -67
-9 -130 -13 -140 -9 -23 7 8 -21 90 -83 56 -43 71 -75 40 -87 -9 -3 -82 -6
-162 -5 -140 0 -243 -11 -442 -46 -142 -26 -269 -30 -313 -12 -35 15 -38 20
-35 49 l3 33 93 17 c117 21 132 26 132 43 0 39 -207 32 -465 -16 -356 -66
-460 -121 -770 -406 -187 -171 -271 -243 -347 -294 -34 -23 -92 -68 -128 -99
-78 -68 -144 -118 -310 -235 -290 -205 -405 -335 -466 -528 -15 -50 -16 -64
-6 -103 24 -90 -13 -149 -135 -214 -37 -19 -67 -39 -67 -45 -1 -11 141 -32
150 -22 7 7 61 149 85 226 52 161 131 310 215 400 107 116 189 152 344 152 52
-1 174 8 270 19 333 38 639 42 700 10 33 -18 21 -51 -34 -90 -104 -74 -227
-183 -218 -192 5 -5 54 19 121 62 127 81 225 130 260 130 19 0 22 -4 17 -24
-10 -40 5 -37 62 15 30 27 56 48 58 46 6 -6 -29 -100 -84 -227 -92 -213 -109
-286 -118 -500 -10 -233 15 -415 123 -879 l65 -283 -19 -26 c-49 -65 -67 -55
-102 58 -24 76 -48 95 -82 65 -18 -17 -19 -17 -25 1 -31 87 -83 217 -144 355
-83 188 -159 410 -189 553 -11 55 -23 101 -25 104 -11 10 -25 -12 -31 -51 -11
-62 -15 -63 -45 -10 -41 72 -111 145 -172 178 -48 27 -61 30 -148 30 -89 0
-99 -2 -158 -34 -112 -61 -200 -183 -232 -320 -20 -84 -8 -189 35 -306 23 -63
37 -120 38 -155 2 -53 1 -55 -25 -58 -35 -4 -94 49 -133 120 -39 70 -42 166
-7 215 12 17 22 34 22 37 0 3 -17 4 -38 3 l-37 -2 -3 51 c-2 31 9 107 28 190
34 157 34 154 20 154 -11 0 -50 -73 -81 -152 -42 -107 -69 -112 -166 -32 -37
31 -79 60 -92 66 -37 14 -77 0 -110 -38 -21 -23 -39 -34 -58 -34 -38 -1 -103
-16 -115 -28 -16 -16 1 -35 83 -101 111 -88 131 -144 76 -205 -17 -20 -44 -30
-113 -45 -105 -23 -144 -37 -144 -49 0 -5 73 -13 163 -16 182 -8 242 -17 372
-53 251 -71 344 -186 427 -531 60 -252 105 -399 146 -477 53 -100 195 -245
218 -223 3 3 -20 43 -50 89 -204 302 -310 670 -309 1069 0 111 16 191 86 435
49 172 50 175 33 175 -21 0 -104 -169 -120 -246 -17 -81 -25 -104 -36 -104
-14 0 -23 104 -18 198 4 69 10 98 32 140 56 109 137 171 223 172 144 1 327
-154 442 -373 39 -75 49 -103 121 -352 81 -279 169 -458 283 -581 130 -140
260 -165 423 -83 l60 30 545 -110 c922 -186 1407 -292 1554 -340 50 -16 194
-66 320 -111 318 -113 325 -115 325 -89 0 4 -39 28 -87 54 -49 25 -109 62
-136 80 -26 19 -107 57 -179 85 -158 62 -193 79 -182 90 5 5 79 16 164 25 155
16 226 28 238 39 3 4 0 12 -6 18 -14 14 -316 16 -389 4 -40 -7 -43 -6 -63 26
-57 93 -110 331 -110 499 0 173 35 239 127 239 26 0 66 -10 96 -24 50 -24 242
-54 256 -41 9 10 -20 23 -64 31 -71 12 -236 64 -295 94 -31 16 -71 45 -89 65
-31 36 -32 39 -24 94 12 83 10 297 -6 551 -10 168 -11 247 -3 311 26 205 107
319 228 319 275 0 1916 -171 2204 -230 198 -40 513 -119 765 -191 375 -107
760 -221 773 -228 8 -5 -10 -14 -45 -24 -77 -22 -92 -32 -75 -49 15 -15 167
-14 265 2 57 9 68 7 164 -25 192 -64 436 -202 667 -378 45 -34 182 -144 305
-245 124 -101 249 -195 278 -209 61 -28 88 -61 79 -97 -3 -14 -31 -46 -61 -71
-30 -26 -52 -51 -49 -56 3 -5 20 -9 37 -7 34 2 81 -23 91 -48 12 -32 -62 -68
-199 -94 -65 -13 -543 -25 -825 -22 -293 4 -581 31 -816 78 -161 31 -178 38
-170 67 25 85 36 138 39 173 2 32 -1 39 -17 39 -36 0 -106 -171 -126 -312 -14
-92 -2 -175 31 -229 21 -35 49 -128 52 -174 3 -33 -56 -65 -145 -81 -114 -20
-111 -41 10 -74 l63 -18 -32 -33 c-18 -18 -47 -40 -65 -49 -100 -47 -155 16
-259 300 -42 115 -84 207 -129 285 -8 14 -22 46 -31 72 -24 69 -83 155 -225
328 -119 145 -170 214 -170 233 0 12 34 8 92 -12 34 -12 60 -16 69 -10 38 23
-38 69 -326 200 -99 45 -229 108 -290 140 -157 82 -233 103 -370 103 -97 -1
-121 -5 -205 -33 -268 -91 -431 -270 -534 -589 -56 -175 -77 -289 -83 -467 -8
-238 31 -433 121 -602 19 -35 32 -63 29 -63 -41 0 -615 131 -1073 245 -680
169 -982 238 -1324 305 -302 59 -506 89 -506 75 0 -23 635 -186 1465 -375 766
-175 1408 -336 1441 -362 6 -4 19 -41 29 -81 64 -262 212 -582 361 -779 73
-96 212 -229 305 -290 160 -106 253 -143 386 -153 95 -8 65 -14 536 112 327
87 520 184 663 334 87 93 124 150 124 196 1 145 150 222 376 193 160 -20 304
-73 304 -111 0 -25 36 -33 124 -26 53 4 142 29 356 100 332 111 446 138 580
138 218 1 454 69 1025 299 430 172 453 180 710 251 346 95 416 122 389 149 -5
5 -50 14 -99 19 -169 18 -187 45 -75 119 108 70 381 166 496 173 37 3 45 -1
81 -39 32 -33 47 -42 74 -42 45 1 63 17 147 131 l70 97 76 16 c41 10 89 27
108 39 49 34 55 62 30 149 -39 130 -38 183 4 291 4 10 -15 22 -63 41 -159 64
-334 172 -528 327 -152 120 -396 347 -403 372 -12 47 -83 177 -124 227 -85
103 -213 183 -396 245 -53 18 -212 58 -352 89 -173 39 -321 79 -460 126 -486
164 -842 220 -1600 255 -198 9 -363 21 -443 34 -70 11 -225 32 -345 46 -238
28 -331 49 -425 96 -151 77 -236 144 -502 398 -219 210 -350 313 -467 369 -46
22 -92 49 -103 61 -18 21 -19 25 -4 66 20 54 11 65 -53 65 -43 0 -51 4 -98 51
-54 54 -139 99 -235 124 -33 8 -159 22 -280 30 -243 17 -289 25 -354 61 -38
21 -55 24 -140 23 -53 -1 -103 -3 -111 -5z m-10 -95 c-114 -9 -761 -31 -767
-26 -2 2 83 10 189 16 106 7 207 14 223 15 17 2 125 3 240 3 176 0 194 -1 115
-8z m545 -99 c126 -11 355 -43 423 -58 96 -22 570 -396 1069 -845 l162 -145
-257 5 c-353 8 -753 -12 -1422 -72 -709 -63 -1033 -85 -1234 -85 l-130 0 -42
45 c-56 60 -99 147 -174 345 -76 205 -116 288 -173 365 -71 95 -101 161 -105
230 -5 79 20 119 101 159 47 23 75 30 135 33 280 11 795 34 837 37 99 7 693
-3 810 -14z m-2069 1 c-7 -11 -56 -21 -56 -10 0 9 19 17 43 18 10 1 16 -3 13
-8z m-1226 -104 c0 -22 -23 -44 -52 -51 -37 -8 -38 15 -2 43 30 24 54 27 54 8z
m-191 -25 c19 -36 -6 -51 -181 -103 -155 -47 -218 -77 -249 -121 -94 -128
-644 -593 -840 -709 -46 -27 -83 -41 -120 -46 l-54 -6 30 33 c17 18 82 74 145
125 287 231 350 282 464 380 311 267 471 370 666 433 113 36 126 38 139 14z
m1193 -6 c52 -6 133 -43 160 -72 9 -11 31 -57 49 -104 17 -47 83 -195 146
-330 131 -281 191 -428 227 -554 39 -132 45 -123 -91 -131 -153 -10 -408 -1
-708 26 -132 11 -339 22 -460 24 -183 2 -228 5 -265 20 -169 67 -223 238 -164
519 31 148 117 357 193 471 l27 40 114 6 c63 4 205 23 314 44 197 36 338 54
386 49 14 -2 46 -5 72 -8z m274 -44 c69 -50 131 -130 187 -240 52 -102 76
-164 201 -507 30 -82 66 -176 80 -207 31 -69 20 -75 -46 -25 -97 75 -175 216
-282 517 -91 253 -134 365 -168 433 -15 31 -24 57 -20 57 5 0 27 -13 48 -28z
m-1338 -122 c27 -52 6 -169 -86 -472 -28 -91 -57 -196 -63 -232 -13 -70 -14
-71 -53 -56 -36 13 -49 45 -47 113 2 75 23 149 117 397 40 108 76 215 80 238
8 49 29 54 52 12z m-194 -6 c30 -12 38 -77 22 -173 -14 -77 -152 -529 -175
-571 -16 -29 -85 -32 -234 -11 -78 12 -185 21 -238 21 -101 0 -178 17 -210 46
-67 60 32 179 358 430 307 237 400 287 477 258z m-910 -735 c51 -14 31 -29
-41 -29 -55 0 -83 7 -83 20 0 19 69 24 124 9z m5090 -99 c-5 -5 -39 -16 -74
-24 -56 -13 -125 -22 -380 -52 -33 -4 -41 -2 -29 5 33 21 170 52 290 65 161
17 206 19 193 6z m1031 -30 c458 -39 1330 -179 1556 -249 69 -22 246 -71 394
-111 350 -93 509 -140 652 -196 138 -53 353 -162 361 -183 3 -8 -6 -24 -21
-37 -59 -50 -155 -63 -627 -84 -149 -6 -259 -16 -300 -26 -36 -9 -130 -24
-210 -33 -126 -15 -156 -15 -230 -4 -184 29 -427 89 -785 193 -110 32 -245 70
-300 85 -55 15 -224 64 -375 110 -670 204 -968 276 -1071 261 -97 -15 -250
-17 -374 -6 -138 12 -497 62 -605 84 -76 15 -68 18 85 36 55 6 262 33 460 60
763 103 1084 126 1390 100z m-5055 -50 c31 -23 24 -30 -29 -33 -45 -1 -67 13
-58 37 9 22 56 20 87 -4z m3275 1 c39 -16 -78 -41 -362 -77 -24 -3 -43 -1 -43
4 0 14 90 51 160 67 71 15 213 18 245 6z m-676 -37 c44 -9 39 -20 -16 -33 -54
-14 -342 -16 -388 -3 -27 8 -23 10 40 20 121 20 304 28 364 16z m-699 -34 c0
-13 -40 -13 -60 0 -11 7 -5 10 23 10 20 0 37 -4 37 -10z m4874 -25 c529 -57
908 -129 1120 -214 93 -37 157 -53 416 -100 119 -22 243 -49 277 -59 119 -37
184 -92 168 -141 -4 -12 -15 -15 -49 -13 -30 3 -93 -10 -197 -39 -240 -66
-325 -60 -443 30 -157 121 -333 189 -781 306 -183 47 -266 74 -423 134 -71 28
-180 66 -243 85 -63 19 -106 35 -97 36 9 0 123 -11 252 -25z m-6374 -25 c427
-22 570 -30 1015 -60 430 -29 414 -27 471 -55 133 -65 161 -224 110 -641 -32
-258 -38 -365 -28 -438 7 -43 5 -68 -6 -100 -19 -54 -11 -173 24 -331 64 -300
83 -466 61 -567 -7 -35 -9 -36 -65 -43 -37 -4 -107 1 -202 15 -283 41 -481 80
-1260 249 -102 22 -260 56 -351 75 -92 19 -186 44 -209 56 -63 32 -132 107
-168 180 -57 116 -77 223 -117 623 -9 87 -25 202 -36 255 -28 132 -22 307 15
437 26 93 87 243 134 328 l26 48 95 -6 c53 -3 274 -15 491 -25z m8560 -527 c0
-91 77 -175 342 -374 90 -68 192 -150 228 -184 36 -34 89 -78 118 -99 60 -43
82 -71 82 -103 0 -34 -40 -49 -212 -83 -175 -35 -208 -46 -208 -70 0 -62 -185
-113 -650 -180 -181 -26 -386 -58 -700 -109 -49 -8 -63 -6 -130 20 -142 54
-277 154 -550 404 -221 202 -397 346 -478 391 -2 1 4 14 13 28 22 33 122 80
200 94 96 18 264 30 490 36 338 9 584 34 758 76 209 50 266 60 351 60 143 0
240 -44 359 -164 98 -100 253 -210 235 -168 -1 4 -43 44 -93 89 -241 216 -313
340 -210 366 49 12 55 8 55 -30z m182 -85 c13 -18 35 -51 48 -73 l23 -40 -28
25 c-31 28 -85 98 -85 112 0 17 19 7 42 -24z m-11076 -315 c97 -47 145 -125
152 -245 5 -93 0 -98 -79 -70 -146 53 -172 68 -221 131 -52 67 -72 120 -58
156 23 61 114 73 206 28z m5959 -168 c317 -103 604 -337 813 -660 36 -55 89
-137 118 -181 73 -110 109 -193 189 -429 72 -213 114 -314 162 -383 49 -72
130 -148 203 -191 130 -77 148 -129 85 -247 -28 -52 -33 -69 -24 -85 20 -39
-16 -179 -69 -264 -74 -119 -209 -231 -376 -314 -127 -62 -194 -85 -436 -154
-240 -68 -320 -81 -455 -75 -96 5 -110 9 -187 46 -450 221 -746 713 -807 1346
-15 154 -13 474 3 567 40 225 202 484 469 752 76 77 136 142 132 145 -3 3 -27
-5 -53 -17 -178 -87 -345 -258 -447 -460 -92 -184 -162 -451 -183 -706 l-8
-90 -22 42 c-49 93 -69 268 -52 438 43 428 220 760 470 884 47 23 114 48 150
56 93 21 225 13 325 -20z m5786 -401 c89 -47 169 -132 200 -211 46 -121 34
-280 -32 -424 l-31 -67 -58 30 c-108 56 -251 47 -459 -28 -373 -136 -495 -170
-589 -162 l-37 3 3 69 c2 37 17 120 33 183 29 117 36 177 20 201 -4 7 -46 26
-92 42 -88 31 -150 68 -181 110 -43 58 6 80 174 80 152 0 252 20 530 106 217
68 356 102 417 103 20 1 60 -13 102 -35z m117 21 c72 -17 126 -43 195 -92 49
-34 67 -36 67 -4 0 10 7 24 15 31 13 11 18 5 38 -36 19 -42 22 -66 22 -164 0
-99 -3 -121 -22 -155 -33 -62 -99 -115 -142 -115 -5 0 0 30 10 67 63 228 -20
384 -250 468 -50 19 -11 18 67 0z m-1414 -303 c100 -50 179 -129 225 -225 45
-95 54 -155 43 -278 -7 -91 -14 -118 -44 -180 -20 -41 -42 -83 -51 -93 -14
-19 -15 -19 -41 2 -52 40 -123 57 -241 57 -118 0 -130 -3 -395 -75 -96 -26
-196 -53 -222 -59 -91 -22 -296 -36 -503 -35 -189 1 -233 5 -440 37 -334 52
-369 56 -595 67 -302 15 -419 45 -517 134 -46 42 -53 53 -53 86 0 21 -11 58
-26 86 -23 42 -25 57 -20 107 3 32 9 69 12 82 l6 25 227 0 c124 0 325 -7 446
-15 121 -8 294 -20 385 -26 330 -23 675 -14 906 22 l70 11 40 70 c83 148 152
198 273 198 38 0 82 5 98 11 81 31 132 39 230 36 97 -4 107 -6 187 -45z
m-8658 -117 c45 -19 40 -37 -14 -48 -33 -6 -51 -4 -91 14 -85 36 -85 49 -2 49
41 0 87 -6 107 -15z m9004 -555 c-16 -11 -40 -13 -40 -5 0 8 44 24 50 18 2 -2
-2 -8 -10 -13z m274 -69 c16 -16 17 -21 5 -25 -527 -190 -924 -289 -1657 -416
-162 -28 -310 -57 -330 -66 -34 -14 -35 -16 -18 -26 22 -12 222 3 360 27 44 8
82 13 84 11 6 -7 -243 -85 -482 -151 -132 -37 -296 -87 -365 -111 -196 -69
-287 -73 -593 -25 -67 11 -154 23 -193 26 -149 14 -229 50 -206 94 39 71 308
187 481 207 62 7 84 24 61 47 -8 8 -59 -1 -200 -37 -103 -26 -222 -50 -263
-53 -129 -10 -222 27 -253 100 -6 16 -34 45 -60 65 -62 47 -89 84 -81 109 7
23 67 57 181 104 44 17 93 42 110 53 16 11 34 20 40 19 51 -11 335 -47 525
-68 370 -40 603 -76 697 -109 l35 -12 -64 -12 c-133 -24 -220 -64 -203 -92 7
-12 87 -7 170 10 22 5 94 13 160 19 229 21 352 43 663 122 222 56 330 89 374
112 90 47 165 48 347 7 175 -40 249 -39 305 3 20 16 36 24 36 18 0 -27 44 -19
127 22 48 25 95 47 103 51 26 10 83 -3 104 -23z m-1158 -475 c-64 -40 -393
-137 -458 -135 -35 0 109 54 257 96 72 20 150 42 175 49 65 18 70 16 26 -10z"/>
<path d="M6373 2645 c-111 -34 -195 -114 -268 -256 -250 -483 -64 -1147 384
-1374 50 -25 62 -27 141 -23 114 5 198 43 281 128 212 217 260 711 106 1077
-91 215 -267 402 -421 448 -60 18 -166 18 -223 0z m250 -89 c74 -36 128 -85
180 -164 229 -347 287 -778 145 -1067 -64 -130 -159 -224 -249 -245 -128 -31
-249 10 -360 120 -114 115 -187 260 -250 500 -59 224 -42 421 52 614 62 127
164 229 259 261 64 21 157 14 223 -19z"/>
<path d="M3340 5911 c0 -16 19 -23 40 -16 30 10 24 25 -10 25 -16 0 -30 -4
-30 -9z"/>
<path d="M3160 5900 l-25 -7 26 -7 c35 -10 71 -4 77 12 4 13 -37 15 -78 2z"/>
<path d="M3013 5878 c2 -7 14 -13 27 -13 13 0 25 6 28 13 2 8 -7 12 -28 12
-21 0 -30 -4 -27 -12z"/>
<path d="M8625 3602 c-48 -22 -96 -75 -129 -140 -31 -62 -37 -91 -37 -175 -1
-121 68 -225 211 -322 30 -20 160 -88 287 -151 234 -113 302 -153 358 -205 29
-27 34 -28 90 -21 44 5 61 11 63 24 4 23 -24 40 -195 114 -244 107 -350 170
-379 226 -13 24 -13 32 0 56 8 15 30 37 50 47 40 22 56 67 56 162 -1 245 -212
461 -375 385z m167 -119 c41 -31 93 -91 86 -99 -3 -2 -17 5 -31 17 -15 11 -32
17 -38 13 -8 -5 -6 -10 5 -16 9 -5 28 -32 43 -61 51 -99 39 -307 -17 -307 -10
0 -22 4 -25 10 -3 6 -30 7 -65 3 -71 -7 -104 9 -127 65 -28 67 0 199 51 241
11 9 16 31 16 68 0 96 34 118 102 66z m-162 -32 c8 -15 5 -33 -11 -73 -28 -74
-39 -81 -39 -27 0 52 17 119 30 119 5 0 14 -9 20 -19z"/>
<path d="M1333 3485 c-96 -48 -168 -151 -199 -282 -24 -101 -14 -307 20 -438
31 -118 108 -280 166 -350 49 -58 89 -72 161 -55 90 22 153 101 184 232 19 82
19 286 0 406 -31 189 -111 386 -191 469 -48 51 -69 53 -141 18z m105 -112 c42
-31 88 -97 111 -158 64 -172 69 -519 9 -690 -17 -47 -62 -75 -121 -75 -136 0
-223 185 -234 502 -8 230 26 415 80 439 36 15 125 5 155 -18z"/>
<path d="M2421 2387 c-21 -131 -92 -220 -225 -283 -91 -43 -193 -68 -386 -94
-265 -36 -372 -63 -394 -99 -17 -26 109 -25 349 5 407 50 644 189 685 402 10
53 4 142 -10 142 -4 0 -13 -33 -19 -73z"/>
</g>
</svg>
